# xmcd
#
# Track frame offsets: 
#        150
#        21903
#        47726
#        73419
#        97692
#        124747
#        143701
#        156648
#        184212
#        210985
#        239641
#        265076
#        285523
#
# Disc length: 4182 seconds
#
# Revision: 0
# Processed by: cddbd v1.5.2PL0 Copyright (c) Steve Scherf et al.
# Submitted via: ExactAudioCopy v0.95b4
#
DISCID=c010540d
DTITLE=Indian Instrumental - RAZA
DYEAR=2006
DGENRE=Native American
TTITLE0=The last of mohicans
TTITLE1=Suenos de Manuel
TTITLE2=Love Mountan
TTITLE3=White Buffalo
TTITLE4=Valle del Alto
TTITLE5=Blue Sky
TTITLE6=Atuk
TTITLE7=Sun Kuy Man
TTITLE8=Buffalo
TTITLE9=Wayrapa Muspuynin
TTITLE10=Precious Water
TTITLE11=White Indian
TTITLE12=Shaman Song
EXTD=
EXTT0=
EXTT1=
EXTT2=
EXTT3=
EXTT4=
EXTT5=
EXTT6=
EXTT7=
EXTT8=
EXTT9=
EXTT10=
EXTT11=
EXTT12=
PLAYORDER=
